<svg width="45" height="45" viewBox="0 0 45 45" fill="none" xmlns="http://www.w3.org/2000/svg">
<rect x="1.4458" y="1.14737" width="43" height="43" rx="6.5" fill="#6363DB"/>
<rect x="1.4458" y="1.14737" width="43" height="43" rx="6.5" stroke="#4F4FB9"/>
<path d="M26.4858 30.1474L25.4458 26.7474H20.2458L19.2058 30.1474H15.9458L20.9858 15.8074H24.6858L29.7458 30.1474H26.4858ZM23.6858 20.8874C23.6191 20.6607 23.5325 20.374 23.4258 20.0274C23.3191 19.6807 23.2125 19.3274 23.1058 18.9674C22.9991 18.6074 22.9125 18.294 22.8458 18.0274C22.7791 18.294 22.6858 18.6274 22.5658 19.0274C22.4591 19.414 22.3525 19.7874 22.2458 20.1474C22.1525 20.494 22.0791 20.7407 22.0258 20.8874L21.0058 24.2074H24.7258L23.6858 20.8874Z" fill="white"/>
</svg>
